<svg width="20" height="20" viewBox="0 0 20 20" fill="none" xmlns="http://www.w3.org/2000/svg">
<path d="M2.70374 5.06426C3.22657 4.69883 4.01471 4.76891 4.48415 5.15659L3.94574 4.37401C3.51246 3.75606 3.66764 3.08751 4.28614 2.65367C4.90464 2.22149 6.65724 3.38341 6.65724 3.38341C6.22006 2.75934 6.30183 1.96842 6.92589 1.53069C7.54995 1.09462 8.41095 1.24536 8.84813 1.87053L14.6438 10.0579L13.9051 17.219L7.74073 14.9708L2.3639 6.99873C1.92283 6.37078 2.07523 5.50477 2.70374 5.06426Z" fill="#EF9645"/>
<path d="M1.49895 9.61898C1.49895 9.61898 0.869325 8.70124 1.78762 8.07217C2.7048 7.44311 3.33387 8.36029 3.33387 8.36029L6.2545 12.6197C6.35517 12.4517 6.4653 12.286 6.58822 12.1225L2.5346 6.21167C2.5346 6.21167 1.90553 5.29449 2.82327 4.66542C3.74045 4.03635 4.36952 4.95353 4.36952 4.95353L8.1823 10.5139C8.32413 10.3982 8.4693 10.282 8.61892 10.168L4.19876 3.72099C4.19876 3.72099 3.5697 2.8038 4.48743 2.17474C5.40462 1.54567 6.03368 2.46285 6.03368 2.46285L10.4538 8.9087C10.6163 8.80914 10.777 8.72293 10.9383 8.63171L6.80681 2.60691C6.80681 2.60691 6.17774 1.68973 7.09492 1.06066C8.0121 0.431592 8.64117 1.34877 8.64117 1.34877L13.0096 7.71954L13.6737 8.68845C10.9216 10.5762 10.6596 14.1276 12.232 16.4208C12.5463 16.8797 13.0051 16.5654 13.0051 16.5654C11.1179 13.8128 11.6942 10.7197 14.4468 8.8325L13.6353 4.7711C13.6353 4.7711 13.3322 3.70096 14.4018 3.39727C15.4719 3.09414 15.7756 4.16428 15.7756 4.16428L16.7128 6.94753C17.0844 8.05104 17.4798 9.15065 18.0032 10.1908C19.481 13.1275 18.5983 16.7773 15.8118 18.689C12.7721 20.7731 8.6167 19.9983 6.53204 16.9592L1.49895 9.61898Z" fill="#FFDC5D"/>
<path d="M6.67442 17.7985C4.44961 17.7985 2.20143 15.5504 2.20143 13.3256C2.20143 13.018 1.97617 12.7693 1.66858 12.7693C1.361 12.7693 1.08902 13.018 1.08902 13.3256C1.08902 16.6628 3.3372 18.911 6.67442 18.911C6.98201 18.911 7.23063 18.639 7.23063 18.3314C7.23063 18.0238 6.98201 17.7985 6.67442 17.7985Z" fill="#5DADEC"/>
<path d="M3.89343 18.8876C2.22482 18.8876 1.11241 17.7752 1.11241 16.1066C1.11241 15.799 0.863786 15.5504 0.556204 15.5504C0.248623 15.5504 0 15.799 0 16.1066C0 18.3314 1.66861 20 3.89343 20C4.20101 20 4.44964 19.7514 4.44964 19.4438C4.44964 19.1362 4.20101 18.8876 3.89343 18.8876ZM13.3489 1.08905C13.0419 1.08905 12.7927 1.33823 12.7927 1.64525C12.7927 1.95228 13.0419 2.20146 13.3489 2.20146C15.5737 2.20146 17.7985 4.19768 17.7985 6.65109C17.7985 6.95812 18.0477 7.2073 18.3547 7.2073C18.6618 7.2073 18.911 6.95812 18.911 6.65109C18.911 3.58418 16.6861 1.08905 13.3489 1.08905Z" fill="#5DADEC"/>
<path d="M16.1299 0C15.8229 0 15.5737 0.225819 15.5737 0.532844C15.5737 0.839869 15.8229 1.11241 16.1299 1.11241C17.7985 1.11241 18.8876 2.34996 18.8876 3.87007C18.8876 4.1771 19.1596 4.42628 19.4672 4.42628C19.7747 4.42628 20 4.1771 20 3.87007C20 1.73591 18.3548 0 16.1299 0Z" fill="#5DADEC"/>
</svg>
